<svg id="SvgjsSvg1026" xmlns="http://www.w3.org/2000/svg" version="1.1" xmlns:xlink="http://www.w3.org/1999/xlink" xmlns:svgjs="http://svgjs.com/svgjs" width="25" height="18" viewBox="0 0 25 18"><title>Forma 552</title><desc>Created with Avocode.</desc><defs id="SvgjsDefs1027"></defs><path id="SvgjsPath1028" d="M1256.28 509.997H1244.76L1245.02 509.072C1245.53 507.255 1247.08 505.824 1249.04 505.338L1249.21 505.298L1249.45 505.354C1249.8500000000001 505.568 1250.18 505.652 1250.52 505.652C1250.85 505.652 1251.25 505.549 1251.56 505.383L1251.7 505.303L1251.8700000000001 505.343C1252.0200000000002 505.38100000000003 1255.65 506.307 1256.0300000000002 509.105ZM1245.93 509.101H1255.14C1254.7900000000002 507.265 1252.42 506.441 1251.8100000000002 506.256C1250.9600000000003 506.645 1249.9800000000002 506.63199999999995 1249.1900000000003 506.226C1247.6000000000004 506.669 1246.4000000000003 507.742 1245.9300000000003 509.101ZM1250.69 504.36C1249.1000000000001 504.36 1247.8 503.036 1247.8 501.41C1247.8 499.783 1249.1 498.459 1250.69 498.459C1252.29 498.459 1253.5900000000001 499.783 1253.5900000000001 501.41C1253.5900000000001 503.036 1252.2900000000002 504.36 1250.69 504.36ZM1250.69 499.355C1249.5800000000002 499.355 1248.68 500.27700000000004 1248.68 501.41C1248.68 502.54200000000003 1249.5800000000002 503.464 1250.69 503.464C1251.81 503.464 1252.71 502.542 1252.71 501.41C1252.71 500.27700000000004 1251.81 499.355 1250.69 499.355ZM1256.13 504.576L1256.73 501.27000000000004C1255.78 500.26400000000007 1255.26 499.00800000000004 1255.26 497.70700000000005C1255.26 494.56100000000004 1258.29 492.00100000000003 1262.02 492.00100000000003C1265.76 492.00100000000003 1268.79 494.56100000000004 1268.79 497.70700000000005C1268.79 500.85300000000007 1265.76 503.41300000000007 1262.02 503.41300000000007C1261.41 503.41300000000007 1260.79 503.34200000000004 1260.2 503.20200000000006ZM1262.02 492.898C1258.78 492.898 1256.1399999999999 495.055 1256.1399999999999 497.70700000000005C1256.1399999999999 498.83600000000007 1256.62 499.93300000000005 1257.5099999999998 500.7950000000001L1257.6799999999998 500.9630000000001L1257.2599999999998 503.2480000000001L1260.1599999999999 502.27100000000013L1260.2799999999997 502.30200000000013C1260.8499999999997 502.44400000000013 1261.4399999999998 502.51600000000013 1262.0199999999998 502.51600000000013C1265.2699999999998 502.51600000000013 1267.9199999999998 500.35900000000015 1267.9199999999998 497.7070000000001C1267.9199999999998 495.0550000000001 1265.2699999999998 492.8980000000001 1262.0199999999998 492.8980000000001Z " fill="#59799c" fill-opacity="1" transform="matrix(1,0,0,1,-1244,-492)"></path></svg>