<?xml version="1.0" encoding="utf-8"?>
<!-- Generator: Adobe Illustrator 21.0.2, SVG Export Plug-In . SVG Version: 6.00 Build 0)  -->
<svg version="1.1" id="Capa_1" xmlns="http://www.w3.org/2000/svg" xmlns:xlink="http://www.w3.org/1999/xlink" x="0px" y="0px"
	 viewBox="0 0 41 42" style="enable-background:new 0 0 41 42;" xml:space="preserve">
<style type="text/css">
	.st0{fill:#EFEFEF;}
	.st1{fill:#B2B2B2;}
	.st2{fill:#BCBCBC;}
	.st3{fill:#747C7C;}
	.st4{fill:#C4C4C4;}
</style>
<g>
	<circle class="st0" cx="20.5" cy="20.5" r="20.3"/>
	<path class="st1" d="M25,23.6c0,0,1-0.1,1.8,0.6c-0.8,4-3.5,3.7-6.4,3.4c0,0,8.9,0.6,0,0c-5.2,0-5.6-2.3-6.1-3
		c-0.5-0.7,1.5-1,1.5-1s0.6-0.3,0.3-2.9c1.1,2.1,2.6,3.5,4.3,3.5c1.6,0,3.2-1.4,4.3-3.5C24.4,23.1,25,23.6,25,23.6z"/>
	<path class="st2" d="M27.3,15.2c-0.2-0.2-0.4-0.2-0.7-0.1l0,0c0.1-2.6-0.9-5.6-0.9-5.6C24,9,22.9,10,22.7,8.8
		c-0.7,0.8-4.5-0.7-6.2,0c-4.9,2.1-2.1,6.4-2.1,6.4l0,0l0-0.1l0,0c-0.2-0.1-0.5-0.1-0.7,0.1c-0.5,0.4-0.5,1.5,0,2.4s1.2,1.4,1.7,1.1
		c1.2,3,3.1,5.4,5.2,5.4c2.1,0,4-2.4,5.1-5.5c0.5,0.3,1.2-0.2,1.7-1.1C27.8,16.7,27.8,15.6,27.3,15.2z"/>
	<path class="st3" d="M36.6,32.8H4.3c0,0,0.2-2.9,1.4-4.6c1.2-1.7,9.1-4.6,9.1-4.6c-0.7,3.1,5.6,4,5.6,4s6.3-0.9,5.6-4
		c0,0,8.1,3.1,9.1,4.6C36.1,29.6,36.6,32.8,36.6,32.8z"/>
	<path class="st4" d="M4.3,32.8c4.4,5.2,10.1,7.9,16.1,7.9s12.1-2.9,16.1-7.9H4.3z"/>
	<g>
		<path class="st3" d="M19.8,4.2c0,0,3.3-0.1,5.8,2.3c0.9,0.8,4,4.7,2.5,7.6l-0.2-1c0.1,2.3-2.6,6.4-2.6,6.4s0.7-1.9,0.5-3.9
			c-0.1-0.7-0.2-1.5-0.1-2.2c0.1-1.3-0.3-3.4-3.5-2.9c0,0-1.9,1.4-6.2,0.2c0,0-2.3,4.7-0.7,8.4c0,0-5.3-7.5-0.3-11.9l-2.7,4.5
			c0,0-0.4-7.2,6.8-6.4c0,0-1.3,0.1-2.5-0.2c0,0,2.6-1.4,3.6-0.2C20.2,4.8,20.4,4.6,19.8,4.2z"/>
		<path class="st3" d="M25.8,18.8c-0.2,0.4-0.4,0.6-0.5,0.7l0,0c0,0,0,0,0,0c0.1-0.2,0.2-0.4,0.3-0.6C25.7,18.8,25.7,18.8,25.8,18.8
			z"/>
	</g>
</g>
</svg>
