<?xml version="1.0" encoding="utf-8"?>
<!-- Generator: Adobe Illustrator 21.0.2, SVG Export Plug-In . SVG Version: 6.00 Build 0)  -->
<svg version="1.1" id="Capa_1" xmlns="http://www.w3.org/2000/svg" xmlns:xlink="http://www.w3.org/1999/xlink" x="0px" y="0px"
	 viewBox="0 0 41 42" style="enable-background:new 0 0 41 42;" xml:space="preserve">
<style type="text/css">
	.st0{fill:#EFEFEF;}
	.st1{fill:#747C7C;}
	.st2{fill:#B2B2B2;}
	.st3{fill:#BCBCBC;}
	.st4{fill:#4C5150;}
	.st5{fill:#565656;}
</style>
<g>
	<circle class="st0" cx="21.4" cy="12.3" r="10.7"/>
	<path class="st1" d="M29.9,18.8h-17c0,0,0.1-1.5,0.7-2.4c0.6-0.9,4.8-2.4,4.8-2.4c-0.4,1.6,1.2,3.3,1.2,3.2
		c0.9-1.3,1.7-1.1,1.7-1.1s1.2-0.1,1.5,1.1c0,0.1,1.8-1.5,1.5-3.2c0,0,4.3,1.6,4.8,2.4C29.6,17.1,29.9,18.8,29.9,18.8z"/>
	<path class="st2" d="M23.8,12.9c0,0,0.3,1.7-2.4,3.2l0,0c-2.7-1.4-2.4-3.2-2.4-3.2l0,0c0-0.2,0.1-0.4,0.2-0.5
		c0.6,1.1,1.4,1.8,2.3,1.8c0.8,0,1.7-0.7,2.3-1.8C23.7,12.6,23.8,12.8,23.8,12.9L23.8,12.9z"/>
	<path class="st3" d="M25,9.5c-0.1-0.1-0.2-0.1-0.4-0.1l0,0c0.1-1.4-0.7-2-0.7-2c-0.8-0.3-1.2-1.2-1.3-1.8c-0.4,0.4-0.9,1.3-1.8,1.7
		c-2.6,1.1-2.5,2.2-2.5,2.2l0,0V9.5l0,0c-0.1-0.1-0.3-0.1-0.4,0.1c-0.3,0.2-0.3,0.8,0,1.3s0.6,0.7,0.9,0.6c0.6,1.6,1.6,2.8,2.7,2.8
		c1.1,0,2.1-1.3,2.7-2.9c0.3,0.2,0.6-0.1,0.9-0.6C25.3,10.3,25.3,9.7,25,9.5z"/>
	<path class="st1" d="M25.1,7.9c0,0.5-0.1,1.1-0.2,1.6c-0.1-0.1-0.2-0.1-0.4-0.1l0,0c0.1-1.4-0.7-1.6-0.7-1.6
		c-0.8-0.3-1.2-1.7-1.3-2.3c-0.4,0.4-0.8,1.8-1.8,2.3c-2.6,1.1-2.6,1.6-2.6,1.6l0,0V9.5l0,0c-0.1-0.1-0.3-0.1-0.4,0.1
		c-0.1-0.5-0.2-1.1-0.2-1.6c0-3,1.7-4.3,3.7-4.3S25.1,4.8,25.1,7.9z"/>
	<path class="st4" d="M17.3,11.1c0.1,0.2,0.2,0.4,0.4,0.4c0.3,0,0.5-0.2,0.5-0.5V8.7c0-0.2-0.1-0.3-0.2-0.4c0.1-0.8,0.5-1.5,1-2
		C19.7,5.5,21,5,22.3,5.4c0.5,0.2,1.1,0.4,1.5,0.9c0.5,0.5,0.8,1.3,1,2c-0.3,0.3-0.2,0.4-0.2,2.6c0,0.2,0.1,0.3,0.2,0.4v0.4
		c0,1.3-1.2,1.4-2.6,1.8c-0.3-0.4-0.8-0.1-0.8,0.4c0,0.6,0.8,0.7,0.9,0.2c1.4-0.4,2.9-0.6,2.9-2.3v-0.4c0.1-0.1,0.2-0.2,0.2-0.3
		c0.6,0,1.2-0.6,1.2-1.3s-0.5-1.2-1.2-1.3c-0.1-0.2-0.1-0.3-0.2-0.3c0-0.3,0-0.7-0.1-0.9c-0.1-0.3-0.1-0.5-0.3-0.8
		c-0.1-0.3-0.3-0.6-0.5-0.9C24.3,5.3,24,5,23.7,4.8c-2.7-1.9-6.4,0.4-6.1,3.5c-0.1,0.1-0.2,0.2-0.2,0.3c-0.6,0-1.2,0.6-1.2,1.3
		S16.7,11.1,17.3,11.1z"/>
	<path class="st5" d="M12.9,18.8c2.3,2.7,5.3,4.2,8.5,4.2s6.4-1.5,8.5-4.2H12.9z"/>
</g>
<g>
	<circle class="st0" cx="30.3" cy="29.6" r="10.7"/>
	<path class="st1" d="M38.7,36.1h-17c0,0,0.1-1.5,0.7-2.4c0.6-0.9,4.8-2.4,4.8-2.4c-0.4,1.6,1.2,3.3,1.2,3.2
		c0.9-1.3,1.7-1.1,1.7-1.1s1.2-0.1,1.5,1.1c0,0.1,1.8-1.5,1.5-3.2c0,0,4.3,1.6,4.8,2.4C38.5,34.4,38.7,36.1,38.7,36.1z"/>
	<path class="st2" d="M32.6,30.2c0,0,0.3,1.7-2.4,3.2l0,0c-2.7-1.4-2.4-3.2-2.4-3.2l0,0c0-0.2,0.1-0.4,0.2-0.5
		c0.6,1.1,1.4,1.8,2.3,1.8c0.8,0,1.7-0.7,2.3-1.8C32.6,29.9,32.6,30.1,32.6,30.2L32.6,30.2z"/>
	<path class="st3" d="M33.9,26.8c-0.1-0.1-0.2-0.1-0.4-0.1l0,0c0.1-1.4-0.7-2-0.7-2c-0.8-0.3-1.2-1.2-1.3-1.8
		c-0.4,0.4-0.9,1.3-1.8,1.7c-2.6,1.1-2.5,2.2-2.5,2.2l0,0v-0.1l0,0c-0.1-0.1-0.3-0.1-0.4,0.1c-0.3,0.2-0.3,0.8,0,1.3
		c0.3,0.5,0.6,0.7,0.9,0.6c0.6,1.6,1.6,2.8,2.7,2.8c1.1,0,2.1-1.3,2.7-2.9c0.3,0.2,0.6-0.1,0.9-0.6C34.1,27.6,34.1,27,33.9,26.8z"/>
	<path class="st1" d="M34,25.2c0,0.5-0.1,1.1-0.2,1.6c-0.1-0.1-0.2-0.1-0.4-0.1l0,0c0.1-1.4-0.7-1.6-0.7-1.6
		c-0.8-0.3-1.2-1.7-1.3-2.3c-0.4,0.4-0.8,1.8-1.8,2.3C27,26.3,27,26.8,27,26.8l0,0v-0.1l0,0c-0.1-0.1-0.3-0.1-0.4,0.1
		c-0.1-0.5-0.2-1.1-0.2-1.6c0-3,1.7-4.3,3.7-4.3S34,22.1,34,25.2z"/>
	<path class="st4" d="M26.2,28.4c0.1,0.2,0.2,0.4,0.4,0.4c0.3,0,0.5-0.2,0.5-0.5V26c0-0.2-0.1-0.3-0.2-0.4c0.1-0.8,0.5-1.5,1-2
		c0.7-0.8,1.9-1.3,3.3-0.9c0.5,0.2,1.1,0.4,1.5,0.9c0.5,0.5,0.8,1.3,1,2c-0.3,0.3-0.2,0.4-0.2,2.6c0,0.2,0.1,0.3,0.2,0.4v0.4
		c0,1.3-1.2,1.4-2.6,1.8c-0.3-0.4-0.8-0.1-0.8,0.4c0,0.6,0.8,0.7,0.9,0.2c1.4-0.4,2.9-0.6,2.9-2.3v-0.4c0.1-0.1,0.2-0.2,0.2-0.3
		c0.6,0,1.2-0.6,1.2-1.3S35,26,34.4,25.9c-0.1-0.2-0.1-0.3-0.2-0.3c0-0.3,0-0.7-0.1-0.9c-0.1-0.3-0.1-0.5-0.3-0.8
		c-0.1-0.3-0.3-0.6-0.5-0.9c-0.2-0.3-0.5-0.6-0.8-0.8c-2.7-1.9-6.4,0.4-6.1,3.5c-0.1,0.1-0.2,0.2-0.2,0.3c-0.6,0-1.2,0.6-1.2,1.3
		S25.6,28.4,26.2,28.4z"/>
	<path class="st5" d="M21.8,36.1c2.3,2.7,5.3,4.2,8.5,4.2s6.4-1.5,8.5-4.2H21.8z"/>
</g>
<g>
	<circle class="st0" cx="10.7" cy="28.8" r="10.7"/>
	<path class="st1" d="M19.1,35.2h-17c0,0,0.1-1.5,0.7-2.4c0.6-0.9,4.8-2.4,4.8-2.4c-0.4,1.6,1.2,3.3,1.2,3.2
		c0.9-1.3,1.7-1.1,1.7-1.1s1.2-0.1,1.5,1.1c0,0.1,1.8-1.5,1.5-3.2c0,0,4.3,1.6,4.8,2.4C18.9,33.5,19.1,35.2,19.1,35.2z"/>
	<path class="st2" d="M13,29.4c0,0,0.3,1.7-2.4,3.2l0,0c-2.7-1.4-2.4-3.2-2.4-3.2l0,0c0-0.2,0.1-0.4,0.2-0.5
		c0.6,1.1,1.4,1.8,2.3,1.8c0.8,0,1.7-0.7,2.3-1.8C13,29,13,29.2,13,29.4L13,29.4z"/>
	<path class="st3" d="M14.2,26c-0.1-0.1-0.2-0.1-0.4-0.1l0,0c0.1-1.4-0.7-2-0.7-2c-0.8-0.3-1.2-1.2-1.3-1.8
		c-0.4,0.4-0.9,1.3-1.8,1.7C7.4,24.9,7.5,26,7.5,26l0,0v-0.1l0,0c-0.1-0.1-0.3-0.1-0.4,0.1c-0.3,0.2-0.3,0.8,0,1.3S7.7,28,8,27.8
		c0.6,1.6,1.6,2.8,2.7,2.8s2.1-1.3,2.7-2.9c0.3,0.2,0.6-0.1,0.9-0.6C14.5,26.8,14.5,26.2,14.2,26z"/>
	<path class="st1" d="M14.3,24.3c0,0.5-0.1,1.1-0.2,1.6c-0.1-0.1-0.2-0.1-0.4-0.1l0,0c0.1-1.4-0.7-1.6-0.7-1.6
		c-0.8-0.3-1.2-1.7-1.3-2.3c-0.4,0.4-0.8,1.8-1.8,2.3C7.4,25.4,7.4,26,7.4,26l0,0v-0.1l0,0C7.3,25.9,7.1,25.9,7,26
		c-0.1-0.5-0.2-1.1-0.2-1.6c0-3,1.7-4.3,3.7-4.3S14.3,21.3,14.3,24.3z"/>
	<path class="st4" d="M6.6,27.5c0.1,0.2,0.2,0.4,0.4,0.4c0.3,0,0.5-0.2,0.5-0.5v-2.3c0-0.2-0.1-0.3-0.2-0.4c0.1-0.8,0.5-1.5,1-2
		c0.7-0.8,1.9-1.3,3.3-0.9c0.5,0.2,1.1,0.4,1.5,0.9c0.5,0.5,0.8,1.3,1,2c-0.3,0.3-0.2,0.4-0.2,2.6c0,0.2,0.1,0.3,0.2,0.4v0.4
		c0,1.3-1.2,1.4-2.6,1.8c-0.3-0.4-0.8-0.1-0.8,0.4c0,0.6,0.8,0.7,0.9,0.2c1.4-0.4,2.9-0.6,2.9-2.3v-0.4c0.1-0.1,0.2-0.2,0.2-0.3
		c0.6,0,1.2-0.6,1.2-1.3s-0.5-1.2-1.2-1.3c-0.1-0.2-0.1-0.3-0.2-0.3c0-0.3,0-0.7-0.1-0.9c-0.1-0.3-0.1-0.5-0.3-0.8
		c-0.1-0.3-0.3-0.6-0.5-0.9c-0.2-0.3-0.5-0.6-0.8-0.8c-2.7-1.9-6.4,0.4-6.1,3.5c-0.1,0.1-0.2,0.2-0.2,0.3c-0.6,0-1.2,0.6-1.2,1.3
		C5.4,27,5.9,27.5,6.6,27.5z"/>
	<path class="st5" d="M2.1,35.2c2.3,2.7,5.3,4.2,8.5,4.2s6.4-1.5,8.5-4.2H2.1z"/>
</g>
</svg>
