<?xml version="1.0" encoding="utf-8"?>
<!-- Generator: Adobe Illustrator 21.0.2, SVG Export Plug-In . SVG Version: 6.00 Build 0)  -->
<svg version="1.1" id="Capa_1" xmlns="http://www.w3.org/2000/svg" xmlns:xlink="http://www.w3.org/1999/xlink" x="0px" y="0px"
	 viewBox="0 0 18 18" style="enable-background:new 0 0 18 18;" xml:space="preserve">
<style type="text/css">
	.st0{fill:#3A5675;}
</style>
<g>
	<rect x="7.3" y="3.1" class="st0" width="9.4" height="1"/>
	<rect x="7.3" y="8.5" class="st0" width="9.4" height="1"/>
	<rect x="7.3" y="13.9" class="st0" width="9.4" height="1"/>
	<path class="st0" d="M3.7,16.5c-1.1,0-2.1-0.9-2.1-2.1s0.9-2.1,2.1-2.1s2.1,0.9,2.1,2.1S4.9,16.5,3.7,16.5z M3.7,13.1
		c-0.7,0-1.4,0.6-1.4,1.4c0,0.7,0.6,1.4,1.4,1.4S5,15.2,5,14.4C5,13.7,4.4,13.1,3.7,13.1z"/>
	<path class="st0" d="M3.7,11.1c-1.1,0-2.1-0.9-2.1-2.1s0.9-2.1,2.1-2.1S5.8,7.9,5.8,9S4.9,11.1,3.7,11.1z M3.7,7.7
		C2.9,7.7,2.3,8.3,2.3,9c0,0.7,0.6,1.4,1.4,1.4S5,9.8,5,9C5,8.3,4.4,7.7,3.7,7.7z"/>
	<path class="st0" d="M3.7,5.7c-1.1,0-2.1-0.9-2.1-2.1s0.9-2.1,2.1-2.1s2.1,0.9,2.1,2.1S4.9,5.7,3.7,5.7z M3.7,2.3
		c-0.7,0-1.4,0.6-1.4,1.4C2.3,4.4,2.9,5,3.7,5S5,4.4,5,3.6C5,2.9,4.4,2.3,3.7,2.3z"/>
</g>
</svg>
