<?xml version="1.0" encoding="utf-8"?>
<!-- Generator: Adobe Illustrator 21.0.2, SVG Export Plug-In . SVG Version: 6.00 Build 0)  -->
<svg version="1.1" id="Capa_1" xmlns="http://www.w3.org/2000/svg" xmlns:xlink="http://www.w3.org/1999/xlink" x="0px" y="0px"
	 viewBox="0 0 377 159" style="enable-background:new 0 0 377 159;" xml:space="preserve">
<style type="text/css">
	.st0{fill:#8E4ECC;}
	.st1{fill:#525151;}
	.st2{fill:#414042;}
</style>
<g>
	<rect x="169.5" y="25.9" class="st0" width="1.5" height="106.6"/>
	<g>
		<path class="st0" d="M99.6,126.1H44.4l0.4-1.3c2.4-8.7,10-15.6,19.8-17.9l0.4-0.1l0.3,0.2c2,1.1,4.3,1.6,6.6,1.6
			c2.2,0,4.8-0.7,7-1.8l0.4,0.7l0.2-0.6c9.7,2.3,17.2,9.2,19.8,17.9L99.6,126.1z M47.1,124.1h49.7c-2.7-7.3-9.3-13.1-17.7-15.2
			c-2.3,1.1-4.9,1.7-7.3,1.7c-2.5,0-5-0.6-7.2-1.7C56.3,111.1,49.7,116.8,47.1,124.1z"/>
		<path class="st0" d="M71.7,106.3c-8.1,0-14.7-6.6-14.7-14.7s6.6-14.7,14.7-14.7c8.1,0,14.7,6.6,14.7,14.7S79.8,106.3,71.7,106.3z
			 M71.7,78.8c-7,0-12.7,5.7-12.7,12.7s5.7,12.7,12.7,12.7s12.7-5.7,12.7-12.7S78.7,78.8,71.7,78.8z"/>
		<path class="st0" d="M91.9,84l2.4-12.3c-4.6-4.3-7.2-9.8-7.2-15.7c0-13.1,13.2-23.8,29.4-23.8s29.4,10.7,29.4,23.8
			s-13.2,23.8-29.4,23.8c-3,0-5.9-0.3-8.8-1.1L91.9,84z M116.5,34.2c-15.1,0-27.4,9.8-27.4,21.8c0,5.5,2.4,10.5,6.9,14.5l0.4,0.4
			l-2,10.1l13.1-4.3l0.3,0.1c2.9,0.7,5.7,1.1,8.6,1.1c15.1,0,27.4-9.8,27.4-21.8C143.9,44,131.6,34.2,116.5,34.2z"/>
	</g>
	<g>
		<g>
			<path class="st1" d="M199.6,41.3c-0.7,0.4-1.7,0.7-2.9,0.8c-1.6,0.1-2.5,0.5-2.5,1.3c0,0.7,0.8,1.2,2,1.2c1.8,0,3.3-0.7,3.3-2.1
				v-1.2H199.6z M199.6,46c-0.8,0.8-2,1.3-3.7,1.3c-2.5,0-4.8-1.3-4.8-3.9c0-2.7,2.2-3.4,4.8-3.7c2-0.1,3.4-0.4,3.4-1.4
				c0-0.7-0.8-1.2-2.2-1.2c-1,0-2.4,0.5-2.6,1.6h-3c0.3-2.2,2.5-3.9,5.6-3.9c4.8,0,5.2,3.1,5.2,4V45c0,0.5,0.1,1.4,0.4,2H200
				C199.9,46.8,199.7,46.4,199.6,46"/>
			<path class="st1" d="M210.3,37.8c-1.7,0-3,1.4-3,3.4c0,1.8,1.3,3.4,3,3.4c1.7,0,3-1.4,3-3.4S212,37.8,210.3,37.8 M216.5,47.1
				h-2.9v-1.3c-0.9,0.9-2.2,1.6-3.7,1.6c-3.1,0-5.7-2.7-5.7-6.1c0-3.5,2.6-6.3,5.7-6.3c1.4,0,2.6,0.5,3.5,1.4V30h3V47.1z"/>
			<path class="st1" d="M225.1,37.8c-1.7,0-3,1.4-3,3.4c0,1.8,1.3,3.4,3,3.4c1.7,0,3-1.4,3-3.4C228.2,39.2,226.8,37.8,225.1,37.8
				 M225.5,47.3c-1.3,0-2.6-0.5-3.5-1.4v6.4h-3.1V35.1h3v1.3c0.9-0.9,2.2-1.6,3.7-1.6c3.1,0,5.6,2.7,5.6,6.1
				C231.2,44.6,228.6,47.3,225.5,47.3"/>
			<path class="st1" d="M241.1,41.2c0-2.1-1.3-3.5-3-3.5c-1.6,0-3,1.4-3,3.5c0,2,1.3,3.4,3,3.4C239.8,44.6,241.1,43.2,241.1,41.2
				 M244.3,41.2c0,3.5-2.7,6.3-6,6.3s-6-2.6-6-6.3c0-3.5,2.7-6.3,6-6.3C241.5,34.9,244.3,37.5,244.3,41.2"/>
			<path class="st1" d="M252.8,37.9c-1.2-0.1-2.2,0-3,0.8c-0.7,0.7-0.8,1.7-0.8,2.6v5.9h-3V35.3h2.9v1.2c0.9-1.2,2.4-1.7,3.8-1.4
				v2.9H252.8z"/>
			<path class="st1" d="M260.3,47.1c-3.5,0.4-5.4-1.7-5.4-5v-4.2h-1.4v-2.7h1.4v-3h3v3h2.2v2.7H258v4.2c0,1.7,0.8,2.2,2.4,2.2
				L260.3,47.1L260.3,47.1z"/>
			<path class="st1" d="M269.6,41.3c-0.7,0.4-1.7,0.7-2.9,0.8c-1.6,0.1-2.5,0.5-2.5,1.3c0,0.7,0.8,1.2,2,1.2c1.8,0,3.3-0.7,3.3-2.1
				v-1.2H269.6z M269.7,46c-0.8,0.8-2,1.3-3.7,1.3c-2.5,0-4.8-1.3-4.8-3.9c0-2.7,2.2-3.4,4.8-3.7c2-0.1,3.4-0.4,3.4-1.4
				c0-0.7-0.8-1.2-2.2-1.2c-1,0-2.4,0.5-2.6,1.6h-3c0.3-2.2,2.5-3.9,5.6-3.9c4.8,0,5.2,3.1,5.2,4V45c0,0.5,0.1,1.4,0.4,2H270
				C269.9,46.8,269.9,46.4,269.7,46"/>
			<path class="st1" d="M279.9,47.3c-3,0-5.2-1.6-5.6-4.2h3.1c0.4,1,1.7,1.4,2.6,1.4c1.2,0,2.2-0.4,2.2-1c0-0.7-0.4-0.9-2.5-1.3
				c-2.1-0.3-5-0.9-5-3.5c0-1.8,1.7-3.8,5.1-3.8c2.7,0,4.8,1.4,5.2,3.7H282c-0.1-0.5-0.9-1-2-1c-1.4,0-2,0.5-2,0.9
				c0,0.7,0.9,0.8,2.4,1c3,0.5,5.1,1.2,5.1,3.7C285.1,45.6,282.9,47.3,279.9,47.3"/>
		</g>
		<g>
			<path class="st0" d="M218.6,87.6c-0.4,3.8-1.8,6.7-4.2,8.7c-2.3,2-5.5,3.1-9.4,3.1c-4.2,0-7.6-1.5-10.1-4.5s-3.8-7-3.8-12.1v-3.4
				c0-3.3,0.6-6.2,1.8-8.7s2.9-4.4,5-5.8c2.2-1.3,4.7-2,7.6-2c3.8,0,6.8,1.1,9.1,3.2s3.6,5,4,8.8h-4.7c-0.4-2.8-1.3-4.9-2.7-6.2
				c-1.4-1.3-3.3-1.9-5.7-1.9c-3,0-5.4,1.1-7.1,3.3c-1.7,2.2-2.6,5.4-2.6,9.5V83c0,3.9,0.8,6.9,2.4,9.2c1.6,2.3,3.9,3.4,6.8,3.4
				c2.6,0,4.6-0.6,6-1.8s2.3-3.2,2.8-6.2L218.6,87.6z"/>
			<path class="st0" d="M251.3,87.6c-0.4,3.8-1.8,6.7-4.2,8.7c-2.3,2-5.5,3.1-9.4,3.1c-4.2,0-7.6-1.5-10.1-4.5s-3.8-7-3.8-12.1v-3.4
				c0-3.3,0.6-6.2,1.8-8.7s2.9-4.4,5-5.8c2.2-1.3,4.7-2,7.6-2c3.8,0,6.8,1.1,9.1,3.2s3.6,5,4,8.8h-4.7c-0.4-2.8-1.3-4.9-2.7-6.2
				c-1.4-1.3-3.3-1.9-5.7-1.9c-3,0-5.4,1.1-7.1,3.3c-1.7,2.2-2.6,5.4-2.6,9.5V83c0,3.9,0.8,6.9,2.4,9.2c1.6,2.3,3.9,3.4,6.8,3.4
				c2.6,0,4.6-0.6,6-1.8s2.3-3.2,2.8-6.2L251.3,87.6z"/>
			<path class="st2" d="M266.8,82.4l-4.4,4.5v12h-4.7V63.4h4.7V81l15.9-17.6h5.7l-14,15.7l15.2,19.8h-5.8L266.8,82.4z"/>
			<path class="st2" d="M304.8,98.9c-0.3-0.5-0.5-1.4-0.6-2.8c-2.1,2.2-4.6,3.3-7.6,3.3c-2.6,0-4.8-0.7-6.4-2.2
				c-1.7-1.5-2.5-3.3-2.5-5.6c0-2.8,1-4.9,3.2-6.4c2.1-1.5,5.1-2.3,8.9-2.3h4.4v-2.1c0-1.6-0.5-2.8-1.4-3.8
				c-0.9-0.9-2.3-1.4-4.2-1.4c-1.6,0-3,0.4-4.1,1.2c-1.1,0.8-1.6,1.8-1.6,3h-4.6c0-1.3,0.5-2.6,1.4-3.8c0.9-1.2,2.2-2.2,3.8-2.9
				c1.6-0.7,3.4-1.1,5.3-1.1c3.1,0,5.5,0.8,7.2,2.3s2.6,3.6,2.7,6.3v12.2c0,2.4,0.3,4.4,0.9,5.8V99L304.8,98.9L304.8,98.9z
				 M297.3,95.5c1.4,0,2.8-0.4,4-1.1s2.2-1.7,2.8-2.9v-5.4h-3.6c-5.6,0-8.3,1.6-8.3,4.9c0,1.4,0.5,2.5,1.4,3.3
				C294.6,95.1,295.8,95.5,297.3,95.5z"/>
			<path class="st2" d="M320.7,98.9h-4.5V61.4h4.5V98.9z"/>
			<path class="st2" d="M332.9,98.9h-4.5V61.4h4.5V98.9z"/>
		</g>
		<g>
			<path class="st0" d="M225.3,119.6c-0.1,1.5-0.7,2.7-1.7,3.5s-2.3,1.3-3.9,1.3c-1.1,0-2.1-0.3-3-0.8c-0.9-0.5-1.5-1.3-2-2.3
				s-0.7-2.1-0.7-3.4v-1.3c0-1.3,0.2-2.5,0.7-3.5c0.5-1,1.2-1.8,2-2.4s1.9-0.8,3.1-0.8c1.6,0,2.8,0.4,3.8,1.3s1.5,2.1,1.7,3.6h-2.5
				c-0.1-1-0.4-1.8-0.9-2.2s-1.2-0.7-2.1-0.7c-1.1,0-1.9,0.4-2.5,1.2s-0.9,1.9-0.9,3.5v1.3c0,1.5,0.3,2.7,0.8,3.5
				c0.6,0.8,1.4,1.2,2.4,1.2c1,0,1.7-0.2,2.2-0.7s0.8-1.2,0.9-2.2H225.3z"/>
			<path class="st0" d="M229.1,114.8c0.8-0.9,1.8-1.3,2.9-1.3c2.3,0,3.4,1.3,3.4,3.9v6.9h-2.4v-6.8c0-0.7-0.2-1.2-0.5-1.5
				c-0.3-0.3-0.8-0.5-1.4-0.5c-1,0-1.7,0.4-2.1,1.3v7.5h-2.4v-15h2.4V114.8z"/>
			<path class="st0" d="M243.7,124.2c-0.1-0.2-0.2-0.5-0.3-1c-0.8,0.8-1.7,1.2-2.8,1.2c-1.1,0-1.9-0.3-2.6-0.9c-0.7-0.6-1-1.4-1-2.2
				c0-1.1,0.4-2,1.3-2.6c0.8-0.6,2-0.9,3.6-0.9h1.5v-0.7c0-0.5-0.2-1-0.5-1.3c-0.3-0.3-0.8-0.5-1.4-0.5c-0.5,0-1,0.1-1.3,0.4
				c-0.3,0.3-0.5,0.6-0.5,1h-2.4c0-0.6,0.2-1.1,0.6-1.6c0.4-0.5,0.9-0.9,1.6-1.2c0.7-0.3,1.4-0.4,2.2-0.4c1.2,0,2.2,0.3,3,0.9
				c0.7,0.6,1.1,1.5,1.1,2.6v4.8c0,1,0.1,1.7,0.4,2.3v0.2H243.7z M241.1,122.5c0.5,0,0.9-0.1,1.3-0.3c0.4-0.2,0.7-0.5,0.9-0.9v-2
				h-1.3c-0.9,0-1.5,0.2-2,0.5c-0.4,0.3-0.7,0.7-0.7,1.3c0,0.5,0.2,0.8,0.5,1.1S240.6,122.5,241.1,122.5z"/>
			<path class="st0" d="M250.7,111.1v2.6h1.9v1.8h-1.9v5.9c0,0.4,0.1,0.7,0.2,0.9c0.2,0.2,0.4,0.3,0.9,0.3c0.3,0,0.6,0,0.8-0.1v1.8
				c-0.5,0.1-1.1,0.2-1.6,0.2c-1.8,0-2.7-1-2.7-3v-6h-1.7v-1.8h1.7v-2.6H250.7z"/>
			<path class="st0" d="M261.8,110l4.1,10.9l4.1-10.9h3.2v14.2h-2.5v-4.7l0.2-6.3l-4.2,11H265l-4.2-10.9l0.2,6.3v4.7h-2.5V110H261.8
				z"/>
			<path class="st0" d="M281.6,124.2c-0.1-0.2-0.2-0.5-0.3-1c-0.8,0.8-1.7,1.2-2.8,1.2c-1.1,0-1.9-0.3-2.6-0.9c-0.7-0.6-1-1.4-1-2.2
				c0-1.1,0.4-2,1.3-2.6c0.8-0.6,2-0.9,3.6-0.9h1.5v-0.7c0-0.5-0.2-1-0.5-1.3c-0.3-0.3-0.8-0.5-1.4-0.5c-0.5,0-1,0.1-1.3,0.4
				c-0.3,0.3-0.5,0.6-0.5,1h-2.4c0-0.6,0.2-1.1,0.6-1.6c0.4-0.5,0.9-0.9,1.6-1.2c0.7-0.3,1.4-0.4,2.2-0.4c1.2,0,2.2,0.3,3,0.9
				c0.7,0.6,1.1,1.5,1.1,2.6v4.8c0,1,0.1,1.7,0.4,2.3v0.2H281.6z M279,122.5c0.5,0,0.9-0.1,1.3-0.3c0.4-0.2,0.7-0.5,0.9-0.9v-2H280
				c-0.9,0-1.5,0.2-2,0.5c-0.4,0.3-0.7,0.7-0.7,1.3c0,0.5,0.2,0.8,0.5,1.1S278.5,122.5,279,122.5z"/>
			<path class="st0" d="M287.9,113.7l0.1,1.2c0.8-0.9,1.8-1.4,3.1-1.4c2.2,0,3.3,1.3,3.4,3.8v7H292v-6.8c0-0.7-0.1-1.2-0.4-1.5
				c-0.3-0.3-0.8-0.5-1.4-0.5c-1,0-1.7,0.4-2.1,1.3v7.5h-2.4v-10.6H287.9z"/>
			<path class="st0" d="M302.6,124.2c-0.1-0.2-0.2-0.5-0.3-1c-0.8,0.8-1.7,1.2-2.8,1.2c-1.1,0-1.9-0.3-2.6-0.9c-0.7-0.6-1-1.4-1-2.2
				c0-1.1,0.4-2,1.3-2.6c0.8-0.6,2-0.9,3.6-0.9h1.5v-0.7c0-0.5-0.2-1-0.5-1.3c-0.3-0.3-0.8-0.5-1.4-0.5c-0.5,0-1,0.1-1.3,0.4
				c-0.3,0.3-0.5,0.6-0.5,1h-2.4c0-0.6,0.2-1.1,0.6-1.6c0.4-0.5,0.9-0.9,1.6-1.2c0.7-0.3,1.4-0.4,2.2-0.4c1.2,0,2.2,0.3,3,0.9
				c0.7,0.6,1.1,1.5,1.1,2.6v4.8c0,1,0.1,1.7,0.4,2.3v0.2H302.6z M300,122.5c0.5,0,0.9-0.1,1.3-0.3c0.4-0.2,0.7-0.5,0.9-0.9v-2H301
				c-0.9,0-1.5,0.2-2,0.5c-0.4,0.3-0.7,0.7-0.7,1.3c0,0.5,0.2,0.8,0.5,1.1S299.5,122.5,300,122.5z"/>
			<path class="st0" d="M306.2,118.9c0-1.6,0.4-3,1.2-3.9s1.8-1.5,3.1-1.5c1.2,0,2.2,0.4,2.8,1.3l0.1-1.1h2.1v10.2
				c0,1.4-0.4,2.5-1.3,3.3c-0.9,0.8-2,1.2-3.5,1.2c-0.8,0-1.5-0.2-2.3-0.5c-0.7-0.3-1.3-0.7-1.7-1.3l1.1-1.4
				c0.7,0.9,1.6,1.3,2.7,1.3c0.8,0,1.4-0.2,1.9-0.6c0.5-0.4,0.7-1.1,0.7-1.9v-0.7c-0.7,0.8-1.6,1.1-2.7,1.1c-1.2,0-2.2-0.5-3-1.5
				C306.6,122,306.2,120.6,306.2,118.9z M308.5,119.1c0,1.1,0.2,1.9,0.6,2.5c0.4,0.6,1,0.9,1.8,0.9c1,0,1.7-0.4,2.1-1.2v-4.6
				c-0.4-0.8-1.2-1.2-2.1-1.2c-0.8,0-1.4,0.3-1.8,0.9C308.8,117,308.5,117.9,308.5,119.1z"/>
			<path class="st0" d="M322.1,124.4c-1.5,0-2.7-0.5-3.7-1.4c-0.9-0.9-1.4-2.2-1.4-3.8v-0.3c0-1.1,0.2-2,0.6-2.8
				c0.4-0.8,1-1.5,1.7-1.9c0.7-0.5,1.6-0.7,2.5-0.7c1.4,0,2.6,0.5,3.3,1.4c0.8,0.9,1.2,2.2,1.2,3.9v1h-6.9c0.1,0.9,0.4,1.6,0.9,2.1
				c0.5,0.5,1.2,0.8,1.9,0.8c1.1,0,2-0.4,2.7-1.3l1.3,1.2c-0.4,0.6-1,1.1-1.7,1.5C323.8,124.2,323,124.4,322.1,124.4z M321.8,115.4
				c-0.7,0-1.2,0.2-1.6,0.7s-0.7,1.1-0.8,1.9h4.5v-0.2c-0.1-0.8-0.3-1.4-0.6-1.8S322.5,115.4,321.8,115.4z"/>
			<path class="st0" d="M333.2,115.8c-0.3-0.1-0.6-0.1-1-0.1c-1.1,0-1.8,0.4-2.2,1.2v7.2h-2.4v-10.6h2.3l0.1,1.2
				c0.6-0.9,1.4-1.4,2.4-1.4c0.3,0,0.6,0,0.8,0.1L333.2,115.8z"/>
		</g>
	</g>
</g>
</svg>
