<?xml version="1.0" encoding="utf-8"?>
<!-- Generator: Adobe Illustrator 21.0.2, SVG Export Plug-In . SVG Version: 6.00 Build 0)  -->
<svg version="1.1" id="Capa_1" xmlns="http://www.w3.org/2000/svg" xmlns:xlink="http://www.w3.org/1999/xlink" x="0px" y="0px"
	 viewBox="0 0 22 18" style="enable-background:new 0 0 22 18;" xml:space="preserve">
<style type="text/css">
	.st0{fill:#507196;}
</style>
<g>
	<path class="st0" d="M16.7,6.7c0-3.6-3.5-6.5-7.9-6.5S0.9,3.1,0.9,6.7c0,1.5,0.6,2.9,1.8,4.1L2,14.5l4.6-1.5
		c0.7,0.2,1.4,0.3,2.2,0.3C13.1,13.2,16.7,10.3,16.7,6.7z M6.6,12.2L3,13.4l0.5-2.8l-0.1-0.1c-1.1-1-1.7-2.3-1.7-3.7
		C1.7,3.5,4.9,1,8.8,1c3.9,0,7.1,2.6,7.1,5.7c0,3.2-3.2,5.7-7.1,5.7c-0.7,0-1.4-0.1-2.1-0.3L6.6,12.2z"/>
	<path class="st0" d="M21.1,10.8c0-2.1-1.4-3.9-3.5-4.9c0.1,0.3,0.1,0.5,0.2,0.8c1.6,0.9,2.6,2.4,2.6,4.1c0,1.2-0.5,2.3-1.5,3.2
		l-0.1,0.1l0.5,2.5l-3.2-1l-0.1,0c-0.6,0.1-1.2,0.2-1.8,0.2c-2,0-3.7-0.7-4.8-1.9c-0.3,0-0.6-0.1-0.9-0.1c1.2,1.6,3.4,2.6,5.8,2.6
		c0.6,0,1.3-0.1,1.9-0.2l4,1.3l-0.6-3.2C20.5,13.4,21.1,12.1,21.1,10.8z"/>
</g>
</svg>
